<svg xmlns="http://www.w3.org/2000/svg" viewBox="0 0 100 100">
  <rect width="100" height="100" fill="#F5F2EE"/>
  <!-- Cormorant Garamond italic M glyph, extracted from font -->
  <!-- Original units: 0–785 wide, 0–625 tall (unitsPerEm 1000) -->
  <g transform="translate(8, 92) scale(0.107, -0.107)">
    <path fill="#1A1A1A" d="M466 0Q463 0 463.0 6.0Q463 12 466 12Q498 12 514.5 17.0Q531 22 538.5 37.0Q546 52 550 81L626 587L651 613L330 7Q328 3 322.5 3.5Q317 4 316 8L203 542Q197 574 183.5 589.0Q170 604 154.5 608.5Q139 613 126 613Q124 613 124.0 619.0Q124 625 126 625Q139 625 154.0 624.0Q169 623 181 623Q196 623 207.5 624.0Q219 625 225 625Q236 625 242.0 615.0Q248 605 255 573L360 86L326 36L624 600Q639 625 657 625Q662 625 675.0 624.0Q688 623 699 623Q721 623 735.5 624.0Q750 625 765 625Q767 625 767.0 619.0Q767 613 765 613Q726 613 704.0 600.5Q682 588 676 546L607 81Q601 38 612.0 25.0Q623 12 669 12Q672 12 672.0 6.0Q672 0 669 0Q649 0 623.0 1.0Q597 2 567 2Q538 2 512.0 1.0Q486 0 466 0ZM18 0Q15 0 15.0 6.0Q15 12 18 12Q53 12 73.0 34.5Q93 57 103 109L194 602L212 600L123 109Q115 57 125.5 34.5Q136 12 171 12Q174 12 174.0 6.0Q174 0 171 0Q155 0 137.0 1.0Q119 2 95 2Q74 2 54.5 1.0Q35 0 18 0Z"/>
  </g>
</svg>
